{"title":"Jessica Jones S01E01 720p NF WebRip x264-PiA","uid":12799381,"size":1185350005,"categoryP":"video","categoryS":"hd___tv_shows","magnet":"?xt=urn:btih:98ccc791e512decc38dbd5237ec9dccf5a5ed849&amp;dn=Jessica+Jones+S01E01+720p+NF+WebRip+x264-PiA&amp;tr=udp%3A%2F%2Ftracker.leechers-paradise.org%3A6969&amp;tr=udp%3A%2F%2Fzer0day.ch%3A1337&amp;tr=udp%3A%2F%2Fopen.demonii.com%3A1337&amp;tr=udp%3A%2F%2Ftracker.coppersurfer.tk%3A6969&amp;tr=udp%3A%2F%2Fexodus.desync.com%3A6969","seeders":1,"leechers":0,"uploader":"Mulva1989","files":2,"time":1448029460,"description":"Jessica Jones S01E01 720p NF WebRip x264-PiA\r\n\r\nJessica Jones is hired to find a pretty NYU student who''s vanished, but it turns out to be more than a simple missing persons case.\r\n\r\nScreens @ \nhttp://extraimago.com/images/2015/11/20/Jessica.Jones.S01E01.720p.NF.WebRip.x264-PiA.mkv_snapshot_49.21_2015.11.20_14.14.32.jpg \nhttp://extraimago.com/images/2015/11/20/Jessica.Jones.S01E01.720p.NF.WebRip.x264-PiA.mkv_snapshot_39.10_2015.11.20_14.14.21.jpg \nhttp://extraimago.com/images/2015/11/20/Jessica.Jones.S01E01.720p.NF.WebRip.x264-PiA.mkv.jpg\r\n\r\nFormat                      : Matroska\r\nFormat version              : Version 2\r\nFile size                   : 1.10 GiB\r\nDuration                    : 51mn 55s\r\nOverall bit rate            : 3 044 Kbps\r\nMovie name                  : PiA\r\nEncoded date                : UTC 2015-11-20 12:16:39\r\nWriting application         : mkvmerge v5.6.0 ('Kenya Kane') built on May 28 2012 06:47:39\r\nWriting library             : libebml v1.2.2 + libmatroska v1.3.0\r\n\r\nVideo\r\nID                          : 1\r\nFormat                      : AVC\r\nFormat/Info                 : Advanced Video Codec\r\nFormat profile              :   \r\nFormat settings, CABAC      : Yes\r\nFormat settings, ReFrames   : 5 frames\r\nMuxing mode                 : Header stripping\r\nCodec ID                    : V_MPEG4/ISO/AVC\r\nDuration                    : 51mn 55s\r\nBit rate                    : 2 535 Kbps\r\nWidth                       : 1 280 pixels\r\nHeight                      : 720 pixels\r\nDisplay aspect ratio        : 16:9\r\nFrame rate mode             : Constant\r\nFrame rate                  : 29.970 fps\r\nColor space                 : YUV\r\nChroma subsampling          : 4:2:0\r\nBit depth                   : 8 bits\r\nScan type                   : Progressive\r\nBits/(Pixel*Frame)          : 0.092\r\nStream size                 : 941 MiB (83%)\r\nWriting library             : x264 core 142 r2479 dd79a61\r\nEncoding settings           : cabac=1 / ref=5 / deblock=1:-1:-1 / analyse=0x3:0x113 / me=umh / subme=8 / psy=1 / psy_rd=1.00:0.15 / mixed_ref=1 / me_range=16 / chroma_me=1 / trellis=1 / 8x8dct=1 / cqm=0 / deadzone=21,11 / fast_pskip=1 / chroma_qp_offset=-3 / threads=12 / lookahead_threads=2 / sliced_threads=0 / nr=0 / decimate=1 / interlaced=0 / bluray_compat=0 / constrained_intra=0 / bframes=3 / b_pyramid=2 / b_adapt=2 / b_bias=0 / direct=3 / weightb=1 / open_gop=0 / weightp=2 / keyint=300 / keyint_min=30 / scenecut=40 / intra_refresh=0 / rc_lookahead=50 / rc=crf / mbtree=1 / crf=18.0 / qcomp=0.60 / qpmin=0 / qpmax=69 / qpstep=4 / vbv_maxrate=62500 / vbv_bufsize=78125 / crf_max=0.0 / nal_hrd=none / filler=0 / ip_ratio=1.40 / aq=1:1.00\r\nLanguage                    : English\r\nDefault                     : Yes\r\nForced                      : No\r\nColor primaries             : BT.601 NTSC\r\nTransfer characteristics    : BT.709\r\nMatrix coefficients         : BT.601\r\nColor range                 : Limited\r\n\r\nAudio\r\nID                          : 2\r\nFormat                      : AC-3\r\nFormat/Info                 : Audio Coding 3\r\nMode extension              : CM (complete main)\r\nFormat settings, Endianness : Big\r\nMuxing mode                 : Header stripping\r\nCodec ID                    : A_AC3\r\nDuration                    : 51mn 55s\r\nBit rate mode               : Constant\r\nBit rate                    : 448 Kbps\r\nChannel(s)                  : 6 channels\r\nChannel positions           : Front: L C R, Side: L R, LFE\r\nSampling rate               : 48.0 KHz\r\nBit depth                   : 16 bits\r\nCompression mode            : Lossy\r\nDelay relative to video     : -67ms\r\nStream size                 : 166 MiB (15%)\r\nLanguage                    : English\r\nDefault                     : Yes\r\nForced                      : No","torrent":{"xt":"urn:btih:98ccc791e512decc38dbd5237ec9dccf5a5ed849","amp;dn":"Jessica+Jones+S01E01+720p+NF+WebRip+x264-PiA","amp;tr":["udp%3A%2F%2Ftracker.leechers-paradise.org%3A6969","udp%3A%2F%2Fzer0day.ch%3A1337","udp%3A%2F%2Fopen.demonii.com%3A1337","udp%3A%2F%2Ftracker.coppersurfer.tk%3A6969","udp%3A%2F%2Fexodus.desync.com%3A6969"],"infoHash":"98ccc791e512decc38dbd5237ec9dccf5a5ed849","infoHashBuffer":{"type":"Buffer","data":[152,204,199,145,229,18,222,204,56,219,213,35,126,201,220,207,90,94,216,73]},"announce":[],"urlList":[]}}